<?xml version="1.0" encoding="utf-8"?>
<svg xmlns="http://www.w3.org/2000/svg" xmlns:xlink="http://www.w3.org/1999/xlink" width="600" height="400" viewBox="0 0 2400 1600">
<defs>
  <clipPath id="clip670">
    <rect x="0" y="0" width="2400" height="1600"/>
  </clipPath>
</defs>
<path clip-path="url(#clip670)" d="
M0 1600 L2400 1600 L2400 0 L0 0  Z
  " fill="#ffffff" fill-rule="evenodd" fill-opacity="1"/>
<defs>
  <clipPath id="clip671">
    <rect x="480" y="0" width="1681" height="1600"/>
  </clipPath>
</defs>
<path clip-path="url(#clip670)" d="
M254.163 1384.3 L2352.76 1384.3 L2352.76 47.2441 L254.163 47.2441  Z
  " fill="#ffffff" fill-rule="evenodd" fill-opacity="1"/>
<defs>
  <clipPath id="clip672">
    <rect x="254" y="47" width="2100" height="1338"/>
  </clipPath>
</defs>
<polyline clip-path="url(#clip670)" style="stroke:#000000; stroke-linecap:butt; stroke-linejoin:round; stroke-width:4; stroke-opacity:1; fill:none" points="
  254.163,1384.3 2352.76,1384.3 
  "/>
<polyline clip-path="url(#clip670)" style="stroke:#000000; stroke-linecap:butt; stroke-linejoin:round; stroke-width:4; stroke-opacity:1; fill:none" points="
  254.163,47.2441 2352.76,47.2441 
  "/>
<polyline clip-path="url(#clip670)" style="stroke:#000000; stroke-linecap:butt; stroke-linejoin:round; stroke-width:4; stroke-opacity:1; fill:none" points="
  254.163,1384.3 254.163,1365.4 
  "/>
<polyline clip-path="url(#clip670)" style="stroke:#000000; stroke-linecap:butt; stroke-linejoin:round; stroke-width:4; stroke-opacity:1; fill:none" points="
  603.928,1384.3 603.928,1365.4 
  "/>
<polyline clip-path="url(#clip670)" style="stroke:#000000; stroke-linecap:butt; stroke-linejoin:round; stroke-width:4; stroke-opacity:1; fill:none" points="
  953.694,1384.3 953.694,1365.4 
  "/>
<polyline clip-path="url(#clip670)" style="stroke:#000000; stroke-linecap:butt; stroke-linejoin:round; stroke-width:4; stroke-opacity:1; fill:none" points="
  1303.46,1384.3 1303.46,1365.4 
  "/>
<polyline clip-path="url(#clip670)" style="stroke:#000000; stroke-linecap:butt; stroke-linejoin:round; stroke-width:4; stroke-opacity:1; fill:none" points="
  1653.22,1384.3 1653.22,1365.4 
  "/>
<polyline clip-path="url(#clip670)" style="stroke:#000000; stroke-linecap:butt; stroke-linejoin:round; stroke-width:4; stroke-opacity:1; fill:none" points="
  2002.99,1384.3 2002.99,1365.4 
  "/>
<polyline clip-path="url(#clip670)" style="stroke:#000000; stroke-linecap:butt; stroke-linejoin:round; stroke-width:4; stroke-opacity:1; fill:none" points="
  2352.76,1384.3 2352.76,1365.4 
  "/>
<path clip-path="url(#clip670)" d="M254.163 1424.01 Q247.844 1424.01 244.643 1430.25 Q241.484 1436.44 241.484 1448.92 Q241.484 1461.36 244.643 1467.6 Q247.844 1473.79 254.163 1473.79 Q260.523 1473.79 263.683 1467.6 Q266.883 1461.36 266.883 1448.92 Q266.883 1436.44 263.683 1430.25 Q260.523 1424.01 254.163 1424.01 M254.163 1417.53 Q264.331 1417.53 269.678 1425.59 Q275.066 1433.61 275.066 1448.92 Q275.066 1464.19 269.678 1472.25 Q264.331 1480.27 254.163 1480.27 Q243.995 1480.27 238.607 1472.25 Q233.26 1464.19 233.26 1448.92 Q233.26 1433.61 238.607 1425.59 Q243.995 1417.53 254.163 1417.53 Z" fill="#000000" fill-rule="evenodd" fill-opacity="1" /><path clip-path="url(#clip670)" d="M587.097 1472.21 L600.465 1472.21 L600.465 1426.07 L585.922 1428.99 L585.922 1421.54 L600.384 1418.62 L608.567 1418.62 L608.567 1472.21 L621.935 1472.21 L621.935 1479.1 L587.097 1479.1 L587.097 1472.21 Z" fill="#000000" fill-rule="evenodd" fill-opacity="1" /><path clip-path="url(#clip670)" d="M944.336 1472.21 L972.895 1472.21 L972.895 1479.1 L934.493 1479.1 L934.493 1472.21 Q939.151 1467.39 947.172 1459.29 Q955.233 1451.15 957.299 1448.8 Q961.229 1444.38 962.768 1441.35 Q964.348 1438.27 964.348 1435.31 Q964.348 1430.49 960.945 1427.45 Q957.583 1424.41 952.155 1424.41 Q948.306 1424.41 944.012 1425.75 Q939.759 1427.09 934.898 1429.8 L934.898 1421.54 Q939.84 1419.55 944.134 1418.54 Q948.428 1417.53 951.993 1417.53 Q961.391 1417.53 966.981 1422.23 Q972.571 1426.92 972.571 1434.78 Q972.571 1438.51 971.153 1441.87 Q969.776 1445.19 966.09 1449.73 Q965.077 1450.91 959.649 1456.54 Q954.221 1462.13 944.336 1472.21 Z" fill="#000000" fill-rule="evenodd" fill-opacity="1" /><path clip-path="url(#clip670)" d="M1310.89 1446.49 Q1316.77 1447.75 1320.05 1451.72 Q1323.37 1455.69 1323.37 1461.52 Q1323.37 1470.47 1317.21 1475.37 Q1311.05 1480.27 1299.71 1480.27 Q1295.9 1480.27 1291.85 1479.5 Q1287.84 1478.78 1283.55 1477.28 L1283.55 1469.38 Q1286.95 1471.36 1291 1472.38 Q1295.05 1473.39 1299.47 1473.39 Q1307.17 1473.39 1311.18 1470.35 Q1315.23 1467.31 1315.23 1461.52 Q1315.23 1456.17 1311.46 1453.17 Q1307.73 1450.14 1301.05 1450.14 L1294 1450.14 L1294 1443.41 L1301.37 1443.41 Q1307.41 1443.41 1310.61 1441.02 Q1313.81 1438.59 1313.81 1434.05 Q1313.81 1429.4 1310.49 1426.92 Q1307.21 1424.41 1301.05 1424.41 Q1297.69 1424.41 1293.84 1425.14 Q1289.99 1425.87 1285.37 1427.41 L1285.37 1420.12 Q1290.03 1418.82 1294.08 1418.17 Q1298.17 1417.53 1301.78 1417.53 Q1311.1 1417.53 1316.52 1421.78 Q1321.95 1425.99 1321.95 1433.2 Q1321.95 1438.23 1319.08 1441.71 Q1316.2 1445.15 1310.89 1446.49 Z" fill="#000000" fill-rule="evenodd" fill-opacity="1" /><path clip-path="url(#clip670)" d="M1658.49 1425.75 L1637.83 1458.04 L1658.49 1458.04 L1658.49 1425.75 M1656.34 1418.62 L1666.63 1418.62 L1666.63 1458.04 L1675.26 1458.04 L1675.26 1464.84 L1666.63 1464.84 L1666.63 1479.1 L1658.49 1479.1 L1658.49 1464.84 L1631.19 1464.84 L1631.19 1456.94 L1656.34 1418.62 Z" fill="#000000" fill-rule="evenodd" fill-opacity="1" /><path clip-path="url(#clip670)" d="M1985.98 1418.62 L2018.1 1418.62 L2018.1 1425.51 L1993.47 1425.51 L1993.47 1440.33 Q1995.25 1439.73 1997.04 1439.44 Q1998.82 1439.12 2000.6 1439.12 Q2010.73 1439.12 2016.64 1444.67 Q2022.56 1450.22 2022.56 1459.7 Q2022.56 1469.46 2016.48 1474.89 Q2010.4 1480.27 1999.34 1480.27 Q1995.54 1480.27 1991.57 1479.63 Q1987.64 1478.98 1983.42 1477.68 L1983.42 1469.46 Q1987.07 1471.44 1990.96 1472.42 Q1994.85 1473.39 1999.18 1473.39 Q2006.19 1473.39 2010.28 1469.7 Q2014.37 1466.02 2014.37 1459.7 Q2014.37 1453.38 2010.28 1449.69 Q2006.19 1446 1999.18 1446 Q1995.9 1446 1992.62 1446.73 Q1989.38 1447.46 1985.98 1449 L1985.98 1418.62 Z" fill="#000000" fill-rule="evenodd" fill-opacity="1" /><path clip-path="url(#clip670)" d="M2353.46 1445.6 Q2347.96 1445.6 2344.71 1449.37 Q2341.51 1453.13 2341.51 1459.7 Q2341.51 1466.22 2344.71 1470.03 Q2347.96 1473.79 2353.46 1473.79 Q2358.97 1473.79 2362.17 1470.03 Q2365.41 1466.22 2365.41 1459.7 Q2365.41 1453.13 2362.17 1449.37 Q2358.97 1445.6 2353.46 1445.6 M2369.71 1419.96 L2369.71 1427.41 Q2366.63 1425.95 2363.47 1425.18 Q2360.35 1424.41 2357.27 1424.41 Q2349.17 1424.41 2344.88 1429.88 Q2340.62 1435.35 2340.02 1446.41 Q2342.41 1442.88 2346.01 1441.02 Q2349.62 1439.12 2353.95 1439.12 Q2363.07 1439.12 2368.33 1444.67 Q2373.64 1450.18 2373.64 1459.7 Q2373.64 1469.01 2368.13 1474.64 Q2362.62 1480.27 2353.46 1480.27 Q2342.97 1480.27 2337.42 1472.25 Q2331.87 1464.19 2331.87 1448.92 Q2331.87 1434.58 2338.68 1426.07 Q2345.48 1417.53 2356.95 1417.53 Q2360.03 1417.53 2363.15 1418.13 Q2366.31 1418.74 2369.71 1419.96 Z" fill="#000000" fill-rule="evenodd" fill-opacity="1" /><path clip-path="url(#clip670)" d="M1064.64 1527.77 L1064.64 1536.4 Q1060.51 1532.55 1055.81 1530.65 Q1051.15 1528.75 1045.88 1528.75 Q1035.51 1528.75 1030 1535.11 Q1024.49 1541.43 1024.49 1553.42 Q1024.49 1565.37 1030 1571.73 Q1035.51 1578.05 1045.88 1578.05 Q1051.15 1578.05 1055.81 1576.14 Q1060.51 1574.24 1064.64 1570.39 L1064.64 1578.94 Q1060.34 1581.85 1055.52 1583.31 Q1050.74 1584.77 1045.4 1584.77 Q1031.66 1584.77 1023.76 1576.39 Q1015.87 1567.96 1015.87 1553.42 Q1015.87 1538.83 1023.76 1530.45 Q1031.66 1522.02 1045.4 1522.02 Q1050.82 1522.02 1055.6 1523.48 Q1060.43 1524.9 1064.64 1527.77 Z" fill="#000000" fill-rule="evenodd" fill-opacity="1" /><path clip-path="url(#clip670)" d="M1094.53 1543.45 Q1088.54 1543.45 1085.05 1548.15 Q1081.57 1552.81 1081.57 1560.95 Q1081.57 1569.09 1085.01 1573.79 Q1088.5 1578.45 1094.53 1578.45 Q1100.49 1578.45 1103.97 1573.75 Q1107.46 1569.05 1107.46 1560.95 Q1107.46 1552.89 1103.97 1548.19 Q1100.49 1543.45 1094.53 1543.45 M1094.53 1537.13 Q1104.26 1537.13 1109.81 1543.45 Q1115.36 1549.77 1115.36 1560.95 Q1115.36 1572.09 1109.81 1578.45 Q1104.26 1584.77 1094.53 1584.77 Q1084.77 1584.77 1079.22 1578.45 Q1073.71 1572.09 1073.71 1560.95 Q1073.71 1549.77 1079.22 1543.45 Q1084.77 1537.13 1094.53 1537.13 Z" fill="#000000" fill-rule="evenodd" fill-opacity="1" /><path clip-path="url(#clip670)" d="M1165.42 1556.21 L1165.42 1583.6 L1157.97 1583.6 L1157.97 1556.45 Q1157.97 1550.01 1155.46 1546.81 Q1152.95 1543.61 1147.92 1543.61 Q1141.89 1543.61 1138.41 1547.46 Q1134.92 1551.31 1134.92 1557.95 L1134.92 1583.6 L1127.43 1583.6 L1127.43 1538.23 L1134.92 1538.23 L1134.92 1545.27 Q1137.6 1541.18 1141.2 1539.16 Q1144.85 1537.13 1149.59 1537.13 Q1157.4 1537.13 1161.41 1541.99 Q1165.42 1546.81 1165.42 1556.21 Z" fill="#000000" fill-rule="evenodd" fill-opacity="1" /><path clip-path="url(#clip670)" d="M1212.94 1539.97 L1212.94 1546.94 Q1209.78 1545.19 1206.58 1544.34 Q1203.42 1543.45 1200.18 1543.45 Q1192.93 1543.45 1188.92 1548.07 Q1184.91 1552.65 1184.91 1560.95 Q1184.91 1569.26 1188.92 1573.87 Q1192.93 1578.45 1200.18 1578.45 Q1203.42 1578.45 1206.58 1577.6 Q1209.78 1576.71 1212.94 1574.97 L1212.94 1581.85 Q1209.82 1583.31 1206.46 1584.04 Q1203.14 1584.77 1199.37 1584.77 Q1189.12 1584.77 1183.09 1578.33 Q1177.05 1571.89 1177.05 1560.95 Q1177.05 1549.85 1183.13 1543.49 Q1189.24 1537.13 1199.86 1537.13 Q1203.3 1537.13 1206.58 1537.86 Q1209.86 1538.55 1212.94 1539.97 Z" fill="#000000" fill-rule="evenodd" fill-opacity="1" /><path clip-path="url(#clip670)" d="M1264.71 1559.05 L1264.71 1562.69 L1230.44 1562.69 Q1230.93 1570.39 1235.06 1574.44 Q1239.23 1578.45 1246.65 1578.45 Q1250.94 1578.45 1254.95 1577.4 Q1259 1576.34 1262.97 1574.24 L1262.97 1581.29 Q1258.96 1582.99 1254.75 1583.88 Q1250.53 1584.77 1246.2 1584.77 Q1235.34 1584.77 1228.98 1578.45 Q1222.66 1572.13 1222.66 1561.36 Q1222.66 1550.22 1228.66 1543.69 Q1234.7 1537.13 1244.9 1537.13 Q1254.06 1537.13 1259.37 1543.05 Q1264.71 1548.92 1264.71 1559.05 M1257.26 1556.86 Q1257.18 1550.74 1253.82 1547.1 Q1250.49 1543.45 1244.98 1543.45 Q1238.75 1543.45 1234.98 1546.98 Q1231.25 1550.5 1230.68 1556.9 L1257.26 1556.86 Z" fill="#000000" fill-rule="evenodd" fill-opacity="1" /><path clip-path="url(#clip670)" d="M1314.66 1556.21 L1314.66 1583.6 L1307.21 1583.6 L1307.21 1556.45 Q1307.21 1550.01 1304.69 1546.81 Q1302.18 1543.61 1297.16 1543.61 Q1291.12 1543.61 1287.64 1547.46 Q1284.16 1551.31 1284.16 1557.95 L1284.16 1583.6 L1276.66 1583.6 L1276.66 1538.23 L1284.16 1538.23 L1284.16 1545.27 Q1286.83 1541.18 1290.44 1539.16 Q1294.08 1537.13 1298.82 1537.13 Q1306.64 1537.13 1310.65 1541.99 Q1314.66 1546.81 1314.66 1556.21 Z" fill="#000000" fill-rule="evenodd" fill-opacity="1" /><path clip-path="url(#clip670)" d="M1336.9 1525.34 L1336.9 1538.23 L1352.25 1538.23 L1352.25 1544.02 L1336.9 1544.02 L1336.9 1568.65 Q1336.9 1574.2 1338.4 1575.78 Q1339.94 1577.36 1344.6 1577.36 L1352.25 1577.36 L1352.25 1583.6 L1344.6 1583.6 Q1335.97 1583.6 1332.69 1580.4 Q1329.41 1577.15 1329.41 1568.65 L1329.41 1544.02 L1323.94 1544.02 L1323.94 1538.23 L1329.41 1538.23 L1329.41 1525.34 L1336.9 1525.34 Z" fill="#000000" fill-rule="evenodd" fill-opacity="1" /><path clip-path="url(#clip670)" d="M1388.35 1545.19 Q1387.09 1544.46 1385.59 1544.14 Q1384.13 1543.78 1382.35 1543.78 Q1376.03 1543.78 1372.63 1547.91 Q1369.27 1552 1369.27 1559.7 L1369.27 1583.6 L1361.77 1583.6 L1361.77 1538.23 L1369.27 1538.23 L1369.27 1545.27 Q1371.62 1541.14 1375.38 1539.16 Q1379.15 1537.13 1384.54 1537.13 Q1385.31 1537.13 1386.24 1537.25 Q1387.17 1537.33 1388.31 1537.54 L1388.35 1545.19 Z" fill="#000000" fill-rule="evenodd" fill-opacity="1" /><path clip-path="url(#clip670)" d="M1416.78 1560.79 Q1407.75 1560.79 1404.27 1562.86 Q1400.78 1564.92 1400.78 1569.9 Q1400.78 1573.87 1403.37 1576.22 Q1406.01 1578.53 1410.5 1578.53 Q1416.7 1578.53 1420.43 1574.16 Q1424.2 1569.74 1424.2 1562.45 L1424.2 1560.79 L1416.78 1560.79 M1431.65 1557.71 L1431.65 1583.6 L1424.2 1583.6 L1424.2 1576.71 Q1421.64 1580.84 1417.84 1582.83 Q1414.03 1584.77 1408.52 1584.77 Q1401.55 1584.77 1397.42 1580.88 Q1393.33 1576.95 1393.33 1570.39 Q1393.33 1562.73 1398.43 1558.84 Q1403.58 1554.96 1413.75 1554.96 L1424.2 1554.96 L1424.2 1554.23 Q1424.2 1549.08 1420.79 1546.29 Q1417.43 1543.45 1411.31 1543.45 Q1407.43 1543.45 1403.74 1544.38 Q1400.05 1545.31 1396.65 1547.18 L1396.65 1540.29 Q1400.74 1538.71 1404.59 1537.94 Q1408.44 1537.13 1412.08 1537.13 Q1421.93 1537.13 1426.79 1542.24 Q1431.65 1547.34 1431.65 1557.71 Z" fill="#000000" fill-rule="evenodd" fill-opacity="1" /><path clip-path="url(#clip670)" d="M1454.38 1525.34 L1454.38 1538.23 L1469.73 1538.23 L1469.73 1544.02 L1454.38 1544.02 L1454.38 1568.65 Q1454.38 1574.2 1455.87 1575.78 Q1457.41 1577.36 1462.07 1577.36 L1469.73 1577.36 L1469.73 1583.6 L1462.07 1583.6 Q1453.44 1583.6 1450.16 1580.4 Q1446.88 1577.15 1446.88 1568.65 L1446.88 1544.02 L1441.41 1544.02 L1441.41 1538.23 L1446.88 1538.23 L1446.88 1525.34 L1454.38 1525.34 Z" fill="#000000" fill-rule="evenodd" fill-opacity="1" /><path clip-path="url(#clip670)" d="M1479.53 1538.23 L1486.99 1538.23 L1486.99 1583.6 L1479.53 1583.6 L1479.53 1538.23 M1479.53 1520.56 L1486.99 1520.56 L1486.99 1530 L1479.53 1530 L1479.53 1520.56 Z" fill="#000000" fill-rule="evenodd" fill-opacity="1" /><path clip-path="url(#clip670)" d="M1520.16 1543.45 Q1514.17 1543.45 1510.68 1548.15 Q1507.2 1552.81 1507.2 1560.95 Q1507.2 1569.09 1510.64 1573.79 Q1514.13 1578.45 1520.16 1578.45 Q1526.12 1578.45 1529.6 1573.75 Q1533.08 1569.05 1533.08 1560.95 Q1533.08 1552.89 1529.6 1548.19 Q1526.12 1543.45 1520.16 1543.45 M1520.16 1537.13 Q1529.88 1537.13 1535.43 1543.45 Q1540.98 1549.77 1540.98 1560.95 Q1540.98 1572.09 1535.43 1578.45 Q1529.88 1584.77 1520.16 1584.77 Q1510.4 1584.77 1504.85 1578.45 Q1499.34 1572.09 1499.34 1560.95 Q1499.34 1549.77 1504.85 1543.45 Q1510.4 1537.13 1520.16 1537.13 Z" fill="#000000" fill-rule="evenodd" fill-opacity="1" /><path clip-path="url(#clip670)" d="M1591.05 1556.21 L1591.05 1583.6 L1583.6 1583.6 L1583.6 1556.45 Q1583.6 1550.01 1581.09 1546.81 Q1578.58 1543.61 1573.55 1543.61 Q1567.52 1543.61 1564.03 1547.46 Q1560.55 1551.31 1560.55 1557.95 L1560.55 1583.6 L1553.06 1583.6 L1553.06 1538.23 L1560.55 1538.23 L1560.55 1545.27 Q1563.22 1541.18 1566.83 1539.16 Q1570.47 1537.13 1575.21 1537.13 Q1583.03 1537.13 1587.04 1541.99 Q1591.05 1546.81 1591.05 1556.21 Z" fill="#000000" fill-rule="evenodd" fill-opacity="1" /><polyline clip-path="url(#clip670)" style="stroke:#000000; stroke-linecap:butt; stroke-linejoin:round; stroke-width:4; stroke-opacity:1; fill:none" points="
  254.163,1384.3 254.163,47.2441 
  "/>
<polyline clip-path="url(#clip670)" style="stroke:#000000; stroke-linecap:butt; stroke-linejoin:round; stroke-width:4; stroke-opacity:1; fill:none" points="
  2352.76,1384.3 2352.76,47.2441 
  "/>
<polyline clip-path="url(#clip670)" style="stroke:#000000; stroke-linecap:butt; stroke-linejoin:round; stroke-width:4; stroke-opacity:1; fill:none" points="
  254.163,1384.3 273.061,1384.3 
  "/>
<polyline clip-path="url(#clip670)" style="stroke:#000000; stroke-linecap:butt; stroke-linejoin:round; stroke-width:4; stroke-opacity:1; fill:none" points="
  254.163,1116.89 273.061,1116.89 
  "/>
<polyline clip-path="url(#clip670)" style="stroke:#000000; stroke-linecap:butt; stroke-linejoin:round; stroke-width:4; stroke-opacity:1; fill:none" points="
  254.163,849.478 273.061,849.478 
  "/>
<polyline clip-path="url(#clip670)" style="stroke:#000000; stroke-linecap:butt; stroke-linejoin:round; stroke-width:4; stroke-opacity:1; fill:none" points="
  254.163,582.066 273.061,582.066 
  "/>
<polyline clip-path="url(#clip670)" style="stroke:#000000; stroke-linecap:butt; stroke-linejoin:round; stroke-width:4; stroke-opacity:1; fill:none" points="
  254.163,314.655 273.061,314.655 
  "/>
<polyline clip-path="url(#clip670)" style="stroke:#000000; stroke-linecap:butt; stroke-linejoin:round; stroke-width:4; stroke-opacity:1; fill:none" points="
  254.163,47.2441 273.061,47.2441 
  "/>
<path clip-path="url(#clip670)" d="M197.26 1359.45 Q190.941 1359.45 187.741 1365.69 Q184.581 1371.88 184.581 1384.36 Q184.581 1396.8 187.741 1403.04 Q190.941 1409.23 197.26 1409.23 Q203.62 1409.23 206.78 1403.04 Q209.98 1396.8 209.98 1384.36 Q209.98 1371.88 206.78 1365.69 Q203.62 1359.45 197.26 1359.45 M197.26 1352.97 Q207.428 1352.97 212.775 1361.03 Q218.163 1369.05 218.163 1384.36 Q218.163 1399.63 212.775 1407.69 Q207.428 1415.71 197.26 1415.71 Q187.093 1415.71 181.705 1407.69 Q176.358 1399.63 176.358 1384.36 Q176.358 1369.05 181.705 1361.03 Q187.093 1352.97 197.26 1352.97 Z" fill="#000000" fill-rule="evenodd" fill-opacity="1" /><path clip-path="url(#clip670)" d="M189.604 1140.24 L218.163 1140.24 L218.163 1147.13 L179.76 1147.13 L179.76 1140.24 Q184.419 1135.42 192.44 1127.32 Q200.501 1119.18 202.567 1116.83 Q206.496 1112.41 208.036 1109.37 Q209.616 1106.3 209.616 1103.34 Q209.616 1098.52 206.213 1095.48 Q202.851 1092.44 197.422 1092.44 Q193.574 1092.44 189.28 1093.78 Q185.027 1095.12 180.165 1097.83 L180.165 1089.57 Q185.108 1087.58 189.402 1086.57 Q193.695 1085.55 197.26 1085.55 Q206.658 1085.55 212.249 1090.25 Q217.839 1094.95 217.839 1102.81 Q217.839 1106.54 216.421 1109.9 Q215.044 1113.22 211.357 1117.76 Q210.345 1118.93 204.917 1124.57 Q199.488 1130.16 189.604 1140.24 Z" fill="#000000" fill-rule="evenodd" fill-opacity="1" /><path clip-path="url(#clip670)" d="M201.392 826.367 L180.733 858.653 L201.392 858.653 L201.392 826.367 M199.245 819.238 L209.535 819.238 L209.535 858.653 L218.163 858.653 L218.163 865.458 L209.535 865.458 L209.535 879.718 L201.392 879.718 L201.392 865.458 L174.089 865.458 L174.089 857.559 L199.245 819.238 Z" fill="#000000" fill-rule="evenodd" fill-opacity="1" /><path clip-path="url(#clip670)" d="M197.989 578.805 Q192.48 578.805 189.24 582.573 Q186.039 586.34 186.039 592.903 Q186.039 599.425 189.24 603.232 Q192.48 607 197.989 607 Q203.499 607 206.699 603.232 Q209.94 599.425 209.94 592.903 Q209.94 586.34 206.699 582.573 Q203.499 578.805 197.989 578.805 M214.234 553.163 L214.234 560.617 Q211.155 559.159 207.995 558.389 Q204.876 557.619 201.797 557.619 Q193.695 557.619 189.402 563.088 Q185.148 568.557 184.54 579.616 Q186.93 576.091 190.536 574.228 Q194.141 572.324 198.476 572.324 Q207.59 572.324 212.856 577.874 Q218.163 583.383 218.163 592.903 Q218.163 602.22 212.654 607.85 Q207.144 613.481 197.989 613.481 Q187.498 613.481 181.948 605.46 Q176.398 597.399 176.398 582.127 Q176.398 567.787 183.204 559.28 Q190.009 550.733 201.473 550.733 Q204.552 550.733 207.671 551.34 Q210.831 551.948 214.234 553.163 Z" fill="#000000" fill-rule="evenodd" fill-opacity="1" /><path clip-path="url(#clip670)" d="M197.422 316.174 Q191.589 316.174 188.227 319.294 Q184.905 322.413 184.905 327.881 Q184.905 333.35 188.227 336.469 Q191.589 339.589 197.422 339.589 Q203.256 339.589 206.618 336.469 Q209.98 333.31 209.98 327.881 Q209.98 322.413 206.618 319.294 Q203.296 316.174 197.422 316.174 M189.24 312.691 Q183.973 311.394 181.016 307.789 Q178.1 304.184 178.1 298.998 Q178.1 291.747 183.244 287.534 Q188.429 283.321 197.422 283.321 Q206.456 283.321 211.6 287.534 Q216.745 291.747 216.745 298.998 Q216.745 304.184 213.788 307.789 Q210.871 311.394 205.646 312.691 Q211.56 314.068 214.841 318.078 Q218.163 322.089 218.163 327.881 Q218.163 336.672 212.775 341.371 Q207.428 346.07 197.422 346.07 Q187.417 346.07 182.029 341.371 Q176.682 336.672 176.682 327.881 Q176.682 322.089 180.003 318.078 Q183.325 314.068 189.24 312.691 M186.242 299.768 Q186.242 304.467 189.158 307.1 Q192.116 309.733 197.422 309.733 Q202.689 309.733 205.646 307.1 Q208.643 304.467 208.643 299.768 Q208.643 295.069 205.646 292.436 Q202.689 289.803 197.422 289.803 Q192.116 289.803 189.158 292.436 Q186.242 295.069 186.242 299.768 Z" fill="#000000" fill-rule="evenodd" fill-opacity="1" /><path clip-path="url(#clip670)" d="M128.395 70.5976 L141.763 70.5976 L141.763 24.4578 L127.22 27.3744 L127.22 19.9207 L141.682 17.0041 L149.865 17.0041 L149.865 70.5976 L163.233 70.5976 L163.233 77.4841 L128.395 77.4841 L128.395 70.5976 Z" fill="#000000" fill-rule="evenodd" fill-opacity="1" /><path clip-path="url(#clip670)" d="M197.26 22.3918 Q190.941 22.3918 187.741 28.6302 Q184.581 34.8281 184.581 47.3049 Q184.581 59.7411 187.741 65.9795 Q190.941 72.1774 197.26 72.1774 Q203.62 72.1774 206.78 65.9795 Q209.98 59.7411 209.98 47.3049 Q209.98 34.8281 206.78 28.6302 Q203.62 22.3918 197.26 22.3918 M197.26 15.9104 Q207.428 15.9104 212.775 23.9716 Q218.163 31.9924 218.163 47.3049 Q218.163 62.5768 212.775 70.6381 Q207.428 78.6589 197.26 78.6589 Q187.093 78.6589 181.705 70.6381 Q176.358 62.5768 176.358 47.3049 Q176.358 31.9924 181.705 23.9716 Q187.093 15.9104 197.26 15.9104 Z" fill="#000000" fill-rule="evenodd" fill-opacity="1" /><path clip-path="url(#clip670)" d="M14.5811 797.641 L22.5614 797.641 Q20.3334 802.299 19.2396 806.431 Q18.1459 810.563 18.1459 814.411 Q18.1459 821.095 20.7385 824.741 Q23.3311 828.347 28.1111 828.347 Q32.1215 828.347 34.1875 825.957 Q36.2129 823.526 37.4687 816.802 L38.4814 811.859 Q40.2233 802.704 44.6388 798.37 Q49.0138 793.995 56.3864 793.995 Q65.1769 793.995 69.7139 799.909 Q74.2509 805.783 74.2509 817.166 Q74.2509 821.46 73.2787 826.321 Q72.3065 831.142 70.4026 836.327 L61.9767 836.327 Q64.7718 831.344 66.1896 826.564 Q67.6074 821.784 67.6074 817.166 Q67.6074 810.158 64.8528 806.35 Q62.0982 802.542 56.9941 802.542 Q52.5381 802.542 50.0265 805.297 Q47.515 808.011 46.2592 814.249 L45.287 819.232 Q43.464 828.387 39.5752 832.479 Q35.6863 836.57 28.7593 836.57 Q20.7385 836.57 16.1204 830.939 Q11.5024 825.268 11.5024 815.343 Q11.5024 811.09 12.2721 806.674 Q13.0418 802.259 14.5811 797.641 Z" fill="#000000" fill-rule="evenodd" fill-opacity="1" /><path clip-path="url(#clip670)" d="M27.706 781.559 L27.706 774.105 L73.0762 774.105 L73.0762 781.559 L27.706 781.559 M10.0441 781.559 L10.0441 774.105 L19.4827 774.105 L19.4827 781.559 L10.0441 781.559 Z" fill="#000000" fill-rule="evenodd" fill-opacity="1" /><path clip-path="url(#clip670)" d="M49.8645 728.654 Q41.7627 728.654 37.3067 732.016 Q32.8507 735.338 32.8507 741.374 Q32.8507 747.369 37.3067 750.731 Q41.7627 754.053 49.8645 754.053 Q57.9258 754.053 62.3818 750.731 Q66.8378 747.369 66.8378 741.374 Q66.8378 735.338 62.3818 732.016 Q57.9258 728.654 49.8645 728.654 M67.4454 721.2 Q79.031 721.2 84.6617 726.345 Q90.333 731.489 90.333 742.103 Q90.333 746.032 89.7254 749.516 Q89.1582 753 87.943 756.281 L80.6919 756.281 Q82.4743 753 83.3249 749.8 Q84.1756 746.599 84.1756 743.278 Q84.1756 735.945 80.3273 732.3 Q76.5194 728.654 68.7822 728.654 L65.0959 728.654 Q69.1063 730.963 71.0912 734.568 Q73.0762 738.173 73.0762 743.197 Q73.0762 751.541 66.7162 756.646 Q60.3563 761.75 49.8645 761.75 Q39.3321 761.75 32.9722 756.646 Q26.6123 751.541 26.6123 743.197 Q26.6123 738.173 28.5972 734.568 Q30.5822 730.963 34.5926 728.654 L27.706 728.654 L27.706 721.2 L67.4454 721.2 Z" fill="#000000" fill-rule="evenodd" fill-opacity="1" /><path clip-path="url(#clip670)" d="M45.692 668.133 L73.0762 668.133 L73.0762 675.587 L45.9351 675.587 Q39.4942 675.587 36.2939 678.099 Q33.0937 680.61 33.0937 685.633 Q33.0937 691.669 36.9421 695.153 Q40.7905 698.637 47.4339 698.637 L73.0762 698.637 L73.0762 706.131 L27.706 706.131 L27.706 698.637 L34.7546 698.637 Q30.6632 695.963 28.6377 692.358 Q26.6123 688.712 26.6123 683.972 Q26.6123 676.154 31.4734 672.144 Q36.2939 668.133 45.692 668.133 Z" fill="#000000" fill-rule="evenodd" fill-opacity="1" /><path clip-path="url(#clip670)" d="M50.2696 632.647 Q50.2696 641.681 52.3355 645.165 Q54.4015 648.648 59.3841 648.648 Q63.354 648.648 65.7035 646.056 Q68.0125 643.423 68.0125 638.926 Q68.0125 632.728 63.6376 629.002 Q59.2221 625.234 51.9304 625.234 L50.2696 625.234 L50.2696 632.647 M47.1909 617.781 L73.0762 617.781 L73.0762 625.234 L66.1896 625.234 Q70.3215 627.786 72.3065 631.594 Q74.2509 635.402 74.2509 640.911 Q74.2509 647.879 70.3621 652.011 Q66.4327 656.102 59.8702 656.102 Q52.214 656.102 48.3251 650.998 Q44.4363 645.853 44.4363 635.686 L44.4363 625.234 L43.7071 625.234 Q38.5625 625.234 35.7673 628.637 Q32.9317 631.999 32.9317 638.116 Q32.9317 642.005 33.8634 645.691 Q34.7951 649.378 36.6585 652.78 L29.772 652.78 Q28.1921 648.689 27.4225 644.841 Q26.6123 640.992 26.6123 637.346 Q26.6123 627.503 31.7164 622.642 Q36.8206 617.781 47.1909 617.781 Z" fill="#000000" fill-rule="evenodd" fill-opacity="1" /><path clip-path="url(#clip670)" d="M10.0441 602.428 L10.0441 594.974 L73.0762 594.974 L73.0762 602.428 L10.0441 602.428 Z" fill="#000000" fill-rule="evenodd" fill-opacity="1" /><circle clip-path="url(#clip672)" cx="429.046" cy="1223.85" r="28" fill="#009af9" fill-rule="evenodd" fill-opacity="1" stroke="#000000" stroke-opacity="1" stroke-width="3.2"/>
<circle clip-path="url(#clip672)" cx="778.811" cy="996.554" r="28" fill="#009af9" fill-rule="evenodd" fill-opacity="1" stroke="#000000" stroke-opacity="1" stroke-width="3.2"/>
<circle clip-path="url(#clip672)" cx="1128.58" cy="689.031" r="28" fill="#009af9" fill-rule="evenodd" fill-opacity="1" stroke="#000000" stroke-opacity="1" stroke-width="3.2"/>
<circle clip-path="url(#clip672)" cx="1478.34" cy="475.102" r="28" fill="#009af9" fill-rule="evenodd" fill-opacity="1" stroke="#000000" stroke-opacity="1" stroke-width="3.2"/>
<circle clip-path="url(#clip672)" cx="1828.11" cy="167.579" r="28" fill="#009af9" fill-rule="evenodd" fill-opacity="1" stroke="#000000" stroke-opacity="1" stroke-width="3.2"/>
<polyline clip-path="url(#clip672)" style="stroke:#009af9; stroke-linecap:butt; stroke-linejoin:round; stroke-width:12; stroke-opacity:1; fill:none" stroke-dasharray="48, 30" points="
  -1494.66,2721.36 3751.82,-1289.81 
  "/>
</svg>
